<svg width="560" height="793" viewBox="0 0 560 793" fill="none" xmlns="http://www.w3.org/2000/svg">
  <path d="M280 388.5C311.707 388.5 342.635 377.873 368.872 358.065C395.098 338.266 415.447 310.197 427.441 277.48C439.435 244.764 442.566 208.796 436.458 174.101C430.349 139.405 415.26 107.455 393.013 82.3183C370.76 57.1749 342.322 39.9605 311.25 32.9773C280.169 25.992 247.962 29.5855 218.735 43.2636C189.522 56.9356 164.663 80.0348 147.22 109.531C129.778 139.024 120.5 173.637 120.5 209C120.5 256.404 137.161 301.982 166.987 335.682C196.833 369.403 237.466 388.5 280 388.5Z"
    fill="#FFFFFF" stroke="#123246" stroke-width="11"/>
  <path d="M510.571 787.5C522.597 787.5 533.863 781.712 541.984 771.884C550.081 762.087 554.5 748.988 554.5 735.5C554.5 648.017 525.789 563.953 474.451 501.833C423.089 439.683 353.177 404.5 280 404.5C206.823 404.5 136.911 439.683 85.5487 501.833C34.2113 563.953 5.5 648.017 5.5 735.5C5.5 748.988 9.91906 762.087 18.0159 771.884C26.1375 781.712 37.4028 787.5 49.4286 787.5H510.571Z"
    fill="#FFFFFF" stroke="#123246" stroke-width="11"/>
  <path d="M99.5798 495C143.487 541.432 90 692.738 90 692.738C169.193 663.277 249.664 739.971 280 782C221.324 542.633 99.5798 495 99.5798 495Z"
    fill="#16C4E1"/>
  <path d="M460.42 495C416.513 541.432 470 692.738 470 692.738C390.807 663.277 310.336 739.971 280 782C338.676 542.633 460.42 495 460.42 495Z"
    fill="#16C4E1"/>
  <path d="M341 377.936C381.346 379.33 463.43 358.494 469 264"
    stroke="#123246" stroke-width="11"/>
  <ellipse cx="293" cy="368.5" rx="41.5" ry="68" transform="rotate(90 293 368.5)" fill="#5E8BB1"/>
  <path d="M117 192C117 8 280 8 280 8C280 8 443 8 443 192"
    stroke="#123246" stroke-width="16"/>
  <path d="M431.726 160.22C433.041 157.307 439.121 154.151 441.997 152.937C467.331 146.868 518 151.572 518 218.94C518 303.15 439.942 282.211 437.067 280.39C434.766 278.934 432.548 274.018 431.726 271.742C431.178 235.782 430.411 163.133 431.726 160.22Z"
    fill="#16C4E1"/>
  <path d="M127.274 160.22C125.959 157.307 119.879 154.151 117.003 152.937C91.6689 146.868 41 151.572 41 218.94C41 303.15 119.058 282.211 121.933 280.39C124.234 278.934 126.452 274.018 127.274 271.742C127.822 235.782 128.589 163.133 127.274 160.22Z"
    fill="#16C4E1"/>
</svg>
