<svg width="471" height="694" viewBox="0 0 471 694" fill="none" xmlns="http://www.w3.org/2000/svg">
  <path d="M293.779 537.171C293.779 582.231 231.82 621.659 231.82 621.659C231.82 621.659 169.862 582.231 169.862 537.171C169.862 492.111 186.76 469.58 186.76 469.58C186.76 469.58 141.7 497.743 144.516 545.62C144.516 635.741 234.637 692.066 234.637 692.066C234.637 692.066 324.758 635.741 324.758 545.62C324.758 494.927 279.697 466.764 279.697 466.764C279.697 466.764 293.779 492.11 293.779 537.171Z" fill="#16C4E1"/>
  <path d="M236 6C155.035 6 89.125 71.02 89.125 151.625C89.125 197.255 104.883 218.625 122.438 246.47C134.144 265.04 146.205 286.38 152.968 317.033H318.063C324.791 285.646 336.973 263.913 348.781 245.158C366.361 217.238 382.095 196.246 382.095 151.626C382.095 70.966 316.968 6.002 236.001 6.002L236 6ZM136.22 133.906L159.437 154.344L199 189.157L230.188 155.032L236.968 147.594L243.875 154.938L274.625 187.658L314.595 154.188L337.281 135.188L329.626 163.782L293.75 297.624L275.687 292.782L303.907 187.532L279.875 207.657L273.095 213.313L267.062 206.873L237.156 175.093L206.594 208.531L200.406 215.311L193.531 209.249L170.281 188.812L198.221 293.03L180.157 297.842L144.22 163.779L136.22 133.904V133.906ZM158.813 335.719V376.844L304 335.719H158.813ZM312.406 352.782L158.812 396.312V425.75L312.406 382.25V352.78V352.782ZM312.406 401.657L192.97 435.5H312.406V401.657ZM179.844 454.187V474.72H293.126V454.19H179.846L179.844 454.187Z"
    fill="#FFFFFF" stroke="#123246" stroke-width="11"/>
  <path d="M159 427.344V342.344L5 523.344L159 427.344Z"
    fill="#FFFFFF" stroke="#123246" stroke-width="11"/>
  <path d="M312 427.344V342.344L466 523.344L312 427.344Z"
    fill="#FFFFFF" stroke="#123246" stroke-width="11"/>
  <path d="M392.5 539L392.5 672"
    stroke="#16C4E1" stroke-width="5" stroke-linecap="round"/>
  <path d="M81 539L81 672"
    stroke="#16C4E1" stroke-width="5" stroke-linecap="round"/>
  <path d="M416.5 556L416.5 659"
    stroke="#16C4E1" stroke-width="5" stroke-linecap="round"/>
  <path d="M57 556L57 659"
    stroke="#16C4E1" stroke-width="5" stroke-linecap="round"/>
  <path d="M367.5 559L367.5 672"
    stroke="#16C4E1" stroke-width="5" stroke-linecap="round"/>
  <path d="M106 559L106 672"
    stroke="#16C4E1" stroke-width="5" stroke-linecap="round"/>
</svg>
