<svg width="778" height="739" viewBox="0 0 778 739" fill="none" xmlns="http://www.w3.org/2000/svg">
  <path d="M276.604 628.359V490.057H335.613M335.613 490.057V683.679M335.613 490.057H394.622M394.622 490.057V739M394.622 490.057H453.63M453.63 490.057V683.679M453.63 490.057H497.887V628.359"
    stroke="#16C4E1" stroke-width="18"/>
  <path d="M497.887 476.221H276.604C267.447 472.558 258.165 471.623 248.944 472.802C202.454 478.744 157.537 538.412 138.302 573.038V393.245C138.302 326.865 212.063 301.042 248.944 296.429V144.302C253.554 98.2013 287.668 6 387.245 6C486.823 6 520.937 98.2013 525.547 144.302V296.429C558.74 285.365 613.139 337.919 636.189 365.58V586.863C636.189 531.542 562.428 490.051 525.547 476.221H497.887Z"
    fill="#FFFFFF"/>
  <path d="M525.547 476.221H497.887H276.604C267.447 472.558 258.165 471.623 248.944 472.802M525.547 476.221C562.428 490.051 636.189 531.542 636.189 586.863C636.189 642.184 636.189 462.391 636.189 365.58C613.139 337.919 558.74 285.365 525.547 296.429M525.547 476.221V365.58M525.547 296.429V144.302C520.937 98.2013 486.823 6 387.245 6C287.668 6 253.554 98.2013 248.944 144.302V296.429M525.547 296.429V365.58M248.944 296.429C212.063 301.042 138.302 326.865 138.302 393.245V573.038C157.537 538.412 202.454 478.744 248.944 472.802M248.944 296.429V365.585M248.944 472.802V365.585M248.944 365.585L525.547 365.58"
    stroke="#123246" stroke-width="11"/>
  <circle cx="387.245" cy="185.792" r="82.9812" fill="#16C4E1"/>
  <path d="M188.064 151.217L167.319 187.149M146.573 223.081L167.319 187.149M167.319 187.149L131.387 166.404L203.251 207.894"
    stroke="#16C4E1" stroke-width="11" stroke-linecap="round" stroke-linejoin="round"/>
  <path d="M77.4225 95.8957L56.6772 131.828M35.9319 167.759L56.6772 131.828M56.6772 131.828L20.7453 111.082L92.6091 152.573"
    stroke="#16C4E1" stroke-width="11" stroke-linecap="round" stroke-linejoin="round"/>
  <path d="M160.404 40.5754L139.658 76.5073M118.913 112.439L139.658 76.5073M139.658 76.5073L103.727 55.762L175.59 97.2525"
    stroke="#16C4E1" stroke-width="11" stroke-linecap="round" stroke-linejoin="round"/>
  <path d="M630.63 95.8957L609.885 131.828M589.14 167.759L609.885 131.828M609.885 131.828L573.953 111.082L645.817 152.573"
    stroke="#16C4E1" stroke-width="11" stroke-linecap="round" stroke-linejoin="round"/>
  <path d="M741.272 178.877L720.526 214.809M699.781 250.741L720.526 214.809M720.526 214.809L684.595 194.064L756.458 235.554"
    stroke="#16C4E1" stroke-width="11" stroke-linecap="round" stroke-linejoin="round"/>
  <path d="M630.63 206.537L609.885 242.469M589.14 278.401L609.885 242.469M609.885 242.469L573.953 221.724L645.817 263.214"
    stroke="#16C4E1" stroke-width="11" stroke-linecap="round" stroke-linejoin="round"/>
</svg>
